<svg width="100%" height="100%" viewBox="0 0 14 15" version="1.1" xmlns="http://www.w3.org/2000/svg" xmlns:xlink="http://www.w3.org/1999/xlink" xml:space="preserve" style="fill-rule:evenodd;clip-rule:evenodd;stroke-linejoin:round;stroke-miterlimit:2;">
    <g transform="matrix(0.413982,0,0,0.413982,4.29677,3.67255)">
        <path d="M4.152,1.551C3.964,1.522 3.956,1.519 4.045,1.506C4.214,1.48 4.615,1.515 4.891,1.58C5.535,1.732 6.121,2.122 6.747,2.815L6.913,2.999L7.151,2.961C8.153,2.801 9.172,2.928 10.024,3.319C10.259,3.427 10.629,3.641 10.675,3.696C10.69,3.714 10.717,3.827 10.735,3.947C10.798,4.365 10.767,4.684 10.638,4.923C10.568,5.053 10.564,5.094 10.611,5.206C10.649,5.294 10.753,5.36 10.857,5.36C11.069,5.36 11.297,5.019 11.402,4.546L11.444,4.358L11.528,4.451C11.984,4.965 12.342,5.665 12.403,6.163L12.419,6.293L12.343,6.175C12.211,5.972 12.078,5.833 11.908,5.722C11.602,5.521 11.279,5.452 10.422,5.407C9.648,5.367 9.21,5.301 8.776,5.16C8.037,4.921 7.665,4.602 6.787,3.458C6.397,2.949 6.157,2.668 5.917,2.442C5.372,1.927 4.837,1.657 4.152,1.551Z" style="fill-rule:nonzero;"/>
    </g>
    <g transform="matrix(0.413982,0,0,0.413982,4.29677,3.67255)">
        <path d="M10.849,2.686C10.869,2.346 10.915,2.121 11.009,1.916C11.046,1.835 11.08,1.768 11.086,1.768C11.091,1.768 11.075,1.828 11.05,1.901C10.982,2.101 10.971,2.373 11.018,2.69C11.077,3.092 11.111,3.15 11.539,3.584C11.739,3.788 11.972,4.045 12.057,4.155L12.211,4.356L12.057,4.212C11.869,4.037 11.436,3.695 11.341,3.646C11.277,3.614 11.267,3.614 11.228,3.653C11.191,3.689 11.184,3.743 11.179,3.999C11.171,4.398 11.116,4.654 10.984,4.91C10.913,5.048 10.902,5.019 10.966,4.862C11.014,4.746 11.019,4.694 11.019,4.308C11.018,3.533 10.926,3.346 10.382,3.027C10.245,2.946 10.018,2.83 9.878,2.768C9.739,2.706 9.628,2.652 9.632,2.648C9.647,2.633 10.177,2.787 10.391,2.868C10.708,2.99 10.76,3.005 10.799,2.991C10.824,2.981 10.837,2.906 10.849,2.686Z" style="fill-rule:nonzero;"/>
    </g>
    <g transform="matrix(0.413982,0,0,0.413982,4.29677,3.67255)">
        <path d="M4.517,4.013C4.136,3.491 3.899,2.69 3.951,2.091L3.966,1.906L4.053,1.921C4.217,1.951 4.498,2.055 4.63,2.135C4.991,2.353 5.148,2.64 5.307,3.378C5.354,3.594 5.415,3.839 5.443,3.922C5.488,4.055 5.66,4.366 5.799,4.568C5.899,4.714 5.833,4.783 5.611,4.763C5.272,4.733 4.813,4.418 4.517,4.013Z" style="fill-rule:nonzero;"/>
    </g>
    <g transform="matrix(0.413982,0,0,0.413982,4.29677,3.67255)">
        <path d="M10.386,7.901C8.602,7.187 7.974,6.567 7.974,5.522C7.974,5.368 7.979,5.242 7.986,5.242C7.992,5.242 8.061,5.293 8.139,5.355C8.501,5.643 8.906,5.766 10.028,5.929C10.688,6.025 11.059,6.102 11.402,6.215C12.49,6.574 13.164,7.302 13.325,8.294C13.371,8.583 13.344,9.123 13.268,9.408C13.209,9.633 13.026,10.039 12.978,10.054C12.964,10.059 12.951,10.008 12.948,9.938C12.93,9.566 12.74,9.203 12.422,8.931C12.06,8.622 11.575,8.376 10.386,7.901Z" style="fill-rule:nonzero;"/>
    </g>
    <g transform="matrix(0.413982,0,0,0.413982,4.29677,3.67255)">
        <path d="M9.134,8.197C9.111,8.065 9.073,7.896 9.048,7.822L9.002,7.687L9.087,7.782C9.204,7.912 9.296,8.079 9.375,8.302C9.434,8.472 9.441,8.522 9.441,8.798C9.44,9.069 9.433,9.126 9.378,9.279C9.29,9.52 9.182,9.69 9.001,9.874C8.675,10.204 8.256,10.386 7.651,10.462C7.546,10.475 7.24,10.497 6.971,10.511C6.292,10.546 5.845,10.619 5.444,10.759C5.386,10.779 5.335,10.791 5.329,10.786C5.313,10.77 5.587,10.608 5.812,10.5C6.13,10.347 6.447,10.264 7.157,10.147C7.508,10.089 7.87,10.018 7.962,9.99C8.83,9.726 9.277,9.043 9.134,8.197Z" style="fill-rule:nonzero;"/>
    </g>
    <g transform="matrix(0.413982,0,0,0.413982,4.29677,3.67255)">
        <path d="M9.952,9.641C9.715,9.135 9.66,8.646 9.79,8.19C9.804,8.141 9.826,8.101 9.84,8.101C9.853,8.101 9.909,8.131 9.964,8.168C10.073,8.241 10.292,8.364 10.876,8.68C11.604,9.075 12.02,9.381 12.302,9.73C12.549,10.035 12.702,10.384 12.776,10.808C12.818,11.049 12.793,11.628 12.731,11.87C12.535,12.634 12.08,13.234 11.431,13.584C11.336,13.635 11.251,13.677 11.241,13.677C11.232,13.678 11.267,13.59 11.318,13.483C11.537,13.029 11.562,12.588 11.397,12.097C11.295,11.796 11.089,11.429 10.673,10.808C10.189,10.087 10.071,9.895 9.952,9.641Z" style="fill-rule:nonzero;"/>
    </g>
    <g transform="matrix(0.413982,0,0,0.413982,4.29677,3.67255)">
        <path d="M3.25,12.374C3.913,11.818 4.736,11.423 5.487,11.302C5.81,11.25 6.349,11.271 6.648,11.347C7.128,11.469 7.558,11.743 7.781,12.068C7.999,12.387 8.093,12.664 8.19,13.282C8.229,13.525 8.271,13.77 8.283,13.825C8.356,14.145 8.499,14.401 8.675,14.529C8.956,14.733 9.439,14.746 9.914,14.562C9.994,14.531 10.064,14.509 10.069,14.514C10.086,14.531 9.847,14.69 9.678,14.774C9.451,14.886 9.271,14.93 9.031,14.93C8.596,14.93 8.235,14.71 7.934,14.262C7.874,14.173 7.741,13.909 7.637,13.674C7.319,12.953 7.162,12.733 6.793,12.493C6.471,12.283 6.056,12.246 5.744,12.398C5.335,12.598 5.22,13.118 5.514,13.448C5.631,13.579 5.848,13.692 6.026,13.714C6.359,13.755 6.645,13.504 6.645,13.17C6.645,12.953 6.561,12.829 6.35,12.734C6.061,12.605 5.752,12.756 5.753,13.025C5.754,13.14 5.804,13.212 5.92,13.264C5.994,13.298 5.996,13.3 5.935,13.288C5.671,13.233 5.609,12.916 5.821,12.706C6.077,12.454 6.605,12.565 6.786,12.91C6.862,13.055 6.871,13.343 6.805,13.517C6.656,13.907 6.223,14.112 5.783,14C5.484,13.924 5.362,13.842 5.001,13.473C4.374,12.831 4.131,12.706 3.227,12.566L3.053,12.539L3.25,12.374Z" style="fill-rule:nonzero;"/>
    </g>
    <g transform="matrix(0.413982,0,0,0.413982,4.29677,3.67255)">
        <path d="M0.308,0.884C2.402,3.41 3.845,4.452 4.005,4.672C4.137,4.854 4.087,5.018 3.861,5.146C3.735,5.217 3.475,5.289 3.346,5.289C3.199,5.289 3.148,5.233 3.148,5.233C3.063,5.153 3.015,5.167 2.578,4.396C1.972,3.46 1.464,2.684 1.45,2.671C1.418,2.641 1.419,2.642 2.517,4.594C2.694,5.001 2.552,5.15 2.552,5.208C2.552,5.326 2.519,5.388 2.373,5.551C2.129,5.821 2.02,6.125 1.941,6.754C1.853,7.459 1.605,7.957 0.917,8.81C0.515,9.309 0.449,9.4 0.347,9.602C0.219,9.855 0.184,9.997 0.17,10.317C0.155,10.655 0.184,10.873 0.288,11.197C0.379,11.48 0.474,11.666 0.717,12.04C0.926,12.363 1.047,12.603 1.047,12.697C1.047,12.771 1.061,12.771 1.386,12.698C2.163,12.524 2.794,12.217 3.149,11.841C3.369,11.608 3.42,11.48 3.422,11.161C3.423,10.953 3.416,10.909 3.359,10.789C3.267,10.594 3.099,10.431 2.728,10.179C2.243,9.85 2.035,9.584 1.978,9.219C1.931,8.919 1.986,8.708 2.254,8.148C2.532,7.569 2.601,7.322 2.648,6.739C2.678,6.362 2.719,6.213 2.828,6.093C2.942,5.969 3.044,5.927 3.326,5.889C3.785,5.826 4.077,5.708 4.317,5.488C4.525,5.298 4.612,5.114 4.626,4.837L4.636,4.627L4.519,4.493C4.098,4.004 0.026,0.5 0,0.5C-0.005,0.5 0.133,0.673 0.308,0.884ZM1.284,10.699C1.379,10.531 1.328,10.316 1.169,10.21C1.018,10.111 0.784,10.158 0.784,10.288C0.784,10.327 0.806,10.356 0.856,10.381C0.94,10.424 0.946,10.472 0.88,10.57C0.813,10.67 0.819,10.757 0.895,10.817C1.018,10.913 1.192,10.86 1.284,10.699Z"/>
    </g>
    <g transform="matrix(0.413982,0,0,0.413982,4.29677,3.67255)">
        <path d="M4.925,5.999C4.71,6.064 4.501,6.291 4.436,6.529C4.396,6.674 4.419,6.929 4.478,7.007C4.574,7.134 4.666,7.168 4.917,7.166C5.407,7.163 5.833,6.954 5.883,6.692C5.923,6.478 5.736,6.181 5.478,6.051C5.345,5.984 5.062,5.957 4.925,5.999ZM5.499,6.444C5.574,6.337 5.541,6.222 5.412,6.144C5.168,5.995 4.797,6.118 4.797,6.348C4.797,6.463 4.99,6.588 5.167,6.588C5.285,6.588 5.446,6.518 5.499,6.444Z"/>
    </g>
    <g id="path2684" transform="matrix(0.0458213,0,0,0.0458213,-3.57041,-3.04884)">
        <path d="M346.631,293.014L114.744,293.014C104.596,274.332 98.812,252.938 98.812,230.178C98.812,193.757 113.57,160.801 137.433,136.926C161.308,113.063 194.264,98.305 230.684,98.305C267.105,98.305 300.067,113.063 323.936,136.926C347.799,160.801 362.563,193.757 362.563,230.178C362.563,252.938 356.779,274.332 346.631,293.014ZM271.619,293.014L248.114,293.014L271.619,293.014ZM245.669,293.014L215.634,293.014L245.669,293.014ZM213.237,293.014L189.732,293.014L213.237,293.014ZM343.596,298.333L117.779,298.333C117.117,297.253 116.485,296.15 115.859,295.047L345.516,295.047C344.89,296.15 344.252,297.253 343.596,298.333M334.735,311.206C333.208,307.98 329.923,305.744 326.113,305.744C320.842,305.744 316.572,310.014 316.572,315.291L316.572,318.373L313.114,318.373L313.114,315.291C313.114,310.014 308.845,305.744 303.573,305.744C298.302,305.744 294.027,310.014 294.027,315.291L294.027,318.373L290.569,318.373L290.569,315.291C290.569,310.014 286.293,305.744 281.028,305.744C275.751,305.744 271.482,310.014 271.482,315.291L271.482,318.373L268.029,318.373L268.029,315.291C268.029,310.014 263.754,305.744 258.483,305.744C253.212,305.744 248.937,310.014 248.937,315.291L248.937,318.373L245.377,318.373C244.292,311.23 238.138,305.744 230.69,305.744C223.243,305.744 217.095,311.23 216.01,318.373L212.343,318.373L212.343,315.291C212.343,310.014 208.068,305.744 202.803,305.744C197.525,305.744 193.25,310.014 193.25,315.291L193.25,318.373L189.798,318.373L189.798,315.291C189.798,310.014 185.528,305.744 180.251,305.744C174.98,305.744 170.711,310.014 170.711,315.291L170.711,318.373L167.252,318.373L167.252,315.291C167.252,310.014 162.977,305.744 157.712,305.744C152.435,305.744 148.166,310.014 148.166,315.291L148.166,318.373L144.707,318.373L144.707,315.291C144.707,310.014 140.438,305.744 135.167,305.744C131.386,305.744 128.125,307.945 126.574,311.129C124.249,308.141 122.061,305.047 119.991,301.863L341.383,301.863C339.296,305.07 337.084,308.195 334.735,311.206M323.936,323.43C303.365,344.001 276.037,357.793 245.562,361.216L245.562,346.13L251.131,346.13C261.458,346.13 268.924,345.272 268.924,345.272C268.924,345.272 261.238,344.103 251.131,344.103L245.562,344.103L245.562,321.921L252.222,321.921L252.222,315.291C252.222,311.486 255.311,308.398 259.115,308.398C262.925,308.398 266.014,311.486 266.014,315.291L266.014,321.921L274.761,321.921L274.761,321.88L274.767,321.88L274.767,315.291C274.767,311.486 277.856,308.398 281.66,308.398C285.47,308.398 288.553,311.486 288.553,315.291L288.553,321.921L297.313,321.921L297.313,315.291C297.313,311.486 300.395,308.398 304.206,308.398C308.016,308.398 311.104,311.486 311.104,315.291L311.104,321.921L319.852,321.921L319.852,315.291C319.852,311.486 322.941,308.398 326.751,308.398C329.774,308.398 332.332,310.342 333.262,313.049C330.334,316.668 327.228,320.138 323.936,323.43M238.579,334.217C237.649,337.711 234.477,340.293 230.69,340.293C226.91,340.293 223.738,337.711 222.808,334.217L238.579,334.217ZM228.448,327.324C229.075,329.071 230.738,330.329 232.706,330.329C234.835,330.329 236.606,328.856 237.094,326.87C238.412,326.93 239.73,327.318 241.042,328.415C242.3,329.47 242.789,331.289 242.962,332.183L218.419,332.183C218.592,331.289 219.087,329.47 220.345,328.415C223.034,326.161 225.777,326.9 228.448,327.324M225.252,308.565L227.924,312.387L230.655,307.205L233.386,312.387L236.057,308.565L234.996,315.201L226.314,315.201L225.252,308.565ZM226.517,317.229L234.87,317.229C235.192,317.998 235.991,319.942 236.48,321.063C236.82,321.844 237.255,322.685 236.725,323.543C236.093,324.563 235.264,324.42 234.686,324.372C234.656,324.366 234.62,324.372 234.584,324.366C234,325.958 232.485,327.103 230.69,327.103C228.896,327.103 227.387,325.958 226.803,324.366C226.767,324.372 226.731,324.366 226.701,324.372C226.117,324.42 225.294,324.563 224.662,323.543C224.131,322.685 224.567,321.844 224.907,321.063C225.396,319.942 226.195,317.998 226.517,317.229M240.839,361.669C237.488,361.926 234.107,362.057 230.684,362.057C227.274,362.057 223.893,361.926 220.542,361.675L218.049,346.13L220.929,346.13C220.208,344.425 218.968,341.443 218.485,340.233C217.709,338.289 218.288,337.001 219.582,336.5C220.84,336.011 222.259,336.703 222.706,338.361L223.964,343.083L225.801,343.083L225.801,346.738L221.46,346.738L221.46,348.766L227.816,348.766L227.828,346.13L235.538,346.13L235.532,343.083L237.375,343.083L238.645,338.361C239.092,336.703 240.529,336.011 241.793,336.5C243.093,337.001 243.671,338.289 242.896,340.233C242.688,340.764 242.348,341.634 241.978,342.582L240.261,346.738L235.622,346.738L235.622,348.766L241.614,348.766L242.705,346.13L243.332,346.13L240.839,361.669ZM215.825,344.103L209.743,344.103L209.743,346.13L215.825,346.13L215.825,361.216C185.344,357.799 158.01,344.001 137.433,323.43C134.481,320.472 131.667,317.384 129.007,314.164C129.544,310.89 132.376,308.398 135.799,308.398C139.609,308.398 142.692,311.486 142.692,315.291L142.692,321.921L151.445,321.921L151.445,321.88L151.451,321.88L151.451,315.291C151.451,311.486 154.534,308.398 158.344,308.398C162.154,308.398 165.243,311.486 165.243,315.291L165.243,321.921L173.99,321.921L173.99,315.291C173.99,311.486 177.079,308.398 180.889,308.398C184.694,308.398 187.788,311.486 187.788,315.291L187.788,321.921L196.536,321.921L196.536,315.291C196.536,311.486 199.624,308.398 203.435,308.398C207.245,308.398 210.328,311.486 210.328,315.291L210.328,321.921L215.825,321.921L215.825,344.103ZM230.684,95.92C156.537,95.92 96.427,156.031 96.427,230.178C96.427,304.325 156.537,364.436 230.684,364.436C304.838,364.436 364.942,304.325 364.942,230.178C364.942,156.031 304.838,95.92 230.684,95.92M232.861,320.502L234.018,320.502L234.018,318.475L231.257,318.475L231.257,322.965L232.867,322.965L232.861,320.502ZM131.625,131.148C106.265,156.508 90.589,191.521 90.589,230.22C90.589,268.912 106.265,303.926 131.625,329.285C156.979,354.639 191.992,370.315 230.684,370.315C269.383,370.315 304.396,354.639 329.756,329.285C355.11,303.926 370.786,268.912 370.786,230.22C370.786,191.521 355.11,156.508 329.756,131.148C304.396,105.794 269.383,90.118 230.684,90.118C191.992,90.118 156.979,105.794 131.625,131.148M87.041,230.22C87.041,150.879 151.356,86.57 230.684,86.57C310.025,86.57 374.334,150.879 374.334,230.22C374.334,309.549 310.025,373.863 230.684,373.863C151.356,373.863 87.041,309.549 87.041,230.22M259.872,106.898C258.483,106.898 261.262,106.898 259.872,106.898M201.485,106.898C200.095,106.898 202.874,106.898 201.485,106.898M205.337,342.618C203.947,342.618 202.826,343.745 202.826,345.134C202.826,346.53 203.947,347.651 205.337,347.651C206.732,347.651 207.859,346.53 207.859,345.134C207.859,343.745 206.732,342.618 205.337,342.618M301.671,335.654C301.487,335.654 301.212,335.642 301.045,335.612C300.711,335.552 300.693,335.457 300.634,335.135C300.574,334.634 300.574,333.668 300.574,332.511L300.574,330.382C300.574,328.546 300.574,328.206 300.604,327.83C300.652,327.407 300.693,327.336 300.992,327.27C301.135,327.24 301.218,327.228 301.343,327.228C301.469,327.228 301.642,327.157 301.642,326.984C301.612,326.787 301.439,326.787 301.284,326.781C300.801,326.781 299.99,326.811 299.68,326.811C299.328,326.811 298.475,326.781 298.004,326.781C297.813,326.787 297.641,326.781 297.605,326.984C297.605,327.157 297.778,327.228 297.909,327.228C298.058,327.228 298.207,327.24 298.332,327.282C298.571,327.371 298.648,327.431 298.684,327.83C298.702,328.206 298.702,328.546 298.702,330.382L298.702,332.511C298.702,333.668 298.702,334.634 298.642,335.123C298.589,335.481 298.553,335.57 298.356,335.618C298.249,335.642 298.112,335.654 297.933,335.654C297.748,335.654 297.635,335.773 297.635,335.886C297.641,336.071 297.819,336.113 297.98,336.113C298.475,336.113 299.334,336.077 299.608,336.077C299.948,336.077 300.801,336.113 301.63,336.113C301.773,336.113 301.958,336.077 301.969,335.886C301.969,335.755 301.838,335.654 301.671,335.654M294.093,335.654C293.914,335.654 293.628,335.642 293.473,335.612C293.139,335.552 293.115,335.457 293.055,335.135C292.996,334.634 292.996,333.668 292.996,332.511L292.996,330.382C292.996,328.546 292.996,328.206 293.025,327.83C293.073,327.407 293.115,327.336 293.413,327.27C293.556,327.24 293.645,327.228 293.765,327.228C293.89,327.228 294.063,327.157 294.063,326.984C294.033,326.787 293.86,326.787 293.711,326.781C293.222,326.781 292.411,326.811 292.101,326.811C291.755,326.811 290.897,326.781 290.426,326.781C290.241,326.787 290.062,326.781 290.032,326.984C290.032,327.157 290.199,327.228 290.33,327.228C290.479,327.228 290.628,327.24 290.754,327.282C290.992,327.371 291.064,327.431 291.105,327.83C291.123,328.206 291.123,328.546 291.123,330.382L291.123,332.511C291.123,333.668 291.123,334.634 291.064,335.123C291.01,335.481 290.98,335.57 290.777,335.618C290.67,335.642 290.533,335.654 290.354,335.654C290.169,335.654 290.056,335.773 290.056,335.886C290.062,336.071 290.241,336.113 290.396,336.113C290.897,336.113 291.755,336.077 292.03,336.077C292.369,336.077 293.222,336.113 294.045,336.113C294.2,336.113 294.373,336.077 294.391,335.886C294.391,335.761 294.266,335.654 294.093,335.654M286.514,335.654C286.335,335.654 286.049,335.642 285.894,335.612C285.56,335.552 285.536,335.457 285.476,335.135C285.423,334.634 285.423,333.668 285.423,332.511L285.423,330.382C285.423,328.546 285.423,328.206 285.447,327.83C285.494,327.407 285.536,327.336 285.834,327.27C285.977,327.24 286.067,327.228 286.186,327.228C286.311,327.228 286.49,327.157 286.49,326.984C286.46,326.787 286.281,326.787 286.126,326.781C285.643,326.781 284.832,326.811 284.528,326.811C284.171,326.811 283.324,326.781 282.847,326.781C282.662,326.787 282.483,326.781 282.447,326.984C282.447,327.157 282.62,327.228 282.751,327.228C282.901,327.228 283.05,327.24 283.175,327.282C283.413,327.371 283.491,327.431 283.533,327.83C283.545,328.206 283.545,328.546 283.545,330.382L283.545,332.511C283.545,333.668 283.545,334.634 283.485,335.123C283.437,335.481 283.401,335.57 283.193,335.618C283.091,335.642 282.954,335.654 282.781,335.654C282.59,335.654 282.477,335.773 282.477,335.886C282.483,336.071 282.662,336.113 282.823,336.113C283.324,336.113 284.177,336.077 284.451,336.077C284.791,336.077 285.643,336.113 286.472,336.113C286.621,336.113 286.8,336.077 286.812,335.886C286.812,335.761 286.687,335.654 286.514,335.654M279.985,335.654C279.883,335.654 279.687,335.642 279.538,335.594C279.281,335.51 279.108,335.397 278.9,335.141C278.607,334.789 276.64,331.676 276.163,330.949L278.196,328.176C278.578,327.652 278.81,327.347 279.031,327.294C279.198,327.252 279.347,327.228 279.466,327.228C279.609,327.228 279.758,327.151 279.764,326.996C279.752,326.811 279.573,326.781 279.436,326.781C278.965,326.781 278.446,326.811 278.214,326.811C277.981,326.811 277.391,326.781 276.908,326.781C276.729,326.781 276.544,326.811 276.538,326.996C276.544,327.163 276.687,327.228 276.795,327.228C276.89,327.228 277.057,327.228 277.158,327.264C277.266,327.288 277.307,327.353 277.301,327.371C277.307,327.437 277.266,327.604 277.17,327.753C276.979,328.069 276.008,329.5 275.578,330.138C275.101,329.357 274.618,328.558 274.099,327.646C274.034,327.532 273.98,327.371 273.98,327.341C273.98,327.33 273.992,327.288 274.076,327.264C274.165,327.24 274.29,327.228 274.356,327.228C274.481,327.228 274.642,327.169 274.648,326.996C274.636,326.811 274.451,326.781 274.29,326.781C273.825,326.781 273.05,326.811 272.889,326.811C272.293,326.811 271.285,326.781 270.987,326.781C270.832,326.787 270.653,326.787 270.629,326.984C270.629,327.115 270.731,327.228 270.856,327.228C270.969,327.228 271.166,327.252 271.357,327.312C271.768,327.443 271.995,327.675 272.305,328.146L274.469,331.521L272.066,334.765C271.637,335.349 271.464,335.51 271.13,335.6C270.957,335.642 270.778,335.654 270.701,335.654C270.558,335.66 270.432,335.761 270.432,335.898C270.432,336.047 270.575,336.113 270.713,336.113L270.927,336.113C271.136,336.113 271.744,336.077 271.983,336.077C272.287,336.077 273.11,336.113 273.187,336.113L273.414,336.113C273.575,336.113 273.76,336.095 273.772,335.898C273.76,335.749 273.64,335.666 273.515,335.654C273.42,335.654 273.324,335.642 273.247,335.642C273.163,335.642 273.104,335.6 273.104,335.546L273.104,335.528C273.098,335.439 273.157,335.278 273.271,335.105L275.018,332.398C275.566,333.298 276.216,334.384 276.902,335.499C276.932,335.54 276.932,335.57 276.932,335.582C276.938,335.6 276.92,335.6 276.92,335.6C276.789,335.63 276.675,335.725 276.675,335.856C276.717,336.083 276.902,336.065 277.212,336.089C278.238,336.113 279.233,336.113 279.532,336.113L279.901,336.113C280.05,336.113 280.229,336.077 280.247,335.886C280.241,335.743 280.11,335.654 279.985,335.654M269.389,335.654C269.282,335.654 269.091,335.642 268.936,335.594C268.673,335.51 268.506,335.397 268.304,335.141C268.011,334.789 266.038,331.676 265.561,330.949L267.594,328.176C267.976,327.652 268.208,327.347 268.429,327.294C268.596,327.252 268.745,327.228 268.864,327.228C269.013,327.228 269.156,327.151 269.156,326.996C269.15,326.811 268.966,326.781 268.834,326.781C268.363,326.781 267.85,326.811 267.612,326.811C267.373,326.811 266.789,326.781 266.306,326.781C266.133,326.781 265.942,326.811 265.93,326.996C265.936,327.163 266.091,327.228 266.187,327.228C266.288,327.228 266.449,327.228 266.557,327.264C266.67,327.288 266.706,327.353 266.7,327.371C266.7,327.437 266.664,327.604 266.568,327.753C266.378,328.069 265.406,329.5 264.976,330.138C264.505,329.351 264.016,328.558 263.498,327.646C263.426,327.532 263.378,327.371 263.384,327.341C263.384,327.33 263.39,327.294 263.474,327.264C263.563,327.24 263.688,327.228 263.748,327.228C263.879,327.228 264.046,327.169 264.046,326.996C264.04,326.811 263.855,326.781 263.688,326.781C263.223,326.781 262.448,326.811 262.287,326.811C261.691,326.811 260.689,326.781 260.385,326.781C260.23,326.787 260.057,326.787 260.027,326.984C260.027,327.115 260.129,327.228 260.254,327.228C260.373,327.228 260.564,327.252 260.755,327.312C261.166,327.443 261.393,327.675 261.709,328.146L263.867,331.521L261.464,334.765C261.035,335.349 260.862,335.51 260.528,335.6C260.355,335.642 260.176,335.654 260.099,335.654C259.95,335.66 259.831,335.761 259.831,335.898C259.831,336.047 259.974,336.113 260.111,336.113L260.325,336.113C260.534,336.113 261.142,336.077 261.375,336.077C261.685,336.077 262.502,336.113 262.585,336.113L262.812,336.113C262.973,336.113 263.158,336.095 263.17,335.898C263.158,335.749 263.044,335.666 262.913,335.654C262.824,335.654 262.722,335.642 262.645,335.642C262.562,335.642 262.502,335.6 262.502,335.546C262.502,335.54 262.496,335.528 262.496,335.528C262.496,335.439 262.556,335.278 262.669,335.105L264.416,332.398C264.965,333.298 265.614,334.384 266.3,335.499C266.33,335.54 266.33,335.57 266.33,335.582C266.336,335.6 266.318,335.6 266.318,335.6C266.187,335.63 266.074,335.725 266.074,335.856C266.115,336.083 266.3,336.071 266.616,336.089C267.636,336.113 268.632,336.113 268.93,336.113L269.299,336.113C269.449,336.113 269.627,336.077 269.639,335.886C269.639,335.743 269.514,335.654 269.389,335.654M258.787,335.654C258.68,335.654 258.483,335.642 258.334,335.594C258.077,335.51 257.905,335.397 257.702,335.141C257.41,334.789 255.442,331.676 254.965,330.949L256.992,328.176C257.374,327.652 257.606,327.347 257.833,327.294C257.994,327.252 258.149,327.228 258.262,327.228C258.411,327.228 258.555,327.151 258.56,326.996C258.549,326.811 258.37,326.781 258.233,326.781C257.756,326.781 257.243,326.811 257.01,326.811C256.772,326.811 256.187,326.781 255.704,326.781C255.531,326.781 255.347,326.811 255.335,326.996C255.341,327.163 255.49,327.228 255.591,327.228C255.686,327.228 255.853,327.228 255.955,327.264C256.062,327.288 256.098,327.353 256.098,327.371C256.098,327.437 256.062,327.604 255.973,327.753C255.776,328.069 254.804,329.5 254.375,330.138C253.904,329.357 253.415,328.558 252.896,327.646C252.83,327.532 252.777,327.371 252.777,327.341C252.777,327.33 252.789,327.288 252.872,327.264C252.961,327.24 253.093,327.228 253.146,327.228C253.277,327.228 253.444,327.169 253.45,326.996C253.438,326.811 253.254,326.781 253.093,326.781C252.616,326.781 251.852,326.811 251.685,326.811C251.089,326.811 250.087,326.781 249.783,326.781C249.634,326.787 249.455,326.787 249.426,326.984C249.426,327.115 249.521,327.228 249.652,327.228C249.765,327.228 249.962,327.252 250.153,327.312C250.564,327.443 250.791,327.675 251.107,328.146L253.266,331.521L250.868,334.765C250.433,335.349 250.26,335.51 249.926,335.6C249.759,335.642 249.575,335.654 249.497,335.654C249.354,335.66 249.229,335.761 249.229,335.898C249.229,336.047 249.372,336.113 249.509,336.113L249.73,336.113C249.932,336.113 250.541,336.077 250.773,336.077C251.083,336.077 251.906,336.113 251.984,336.113L252.21,336.113C252.371,336.113 252.556,336.095 252.568,335.898C252.556,335.749 252.443,335.666 252.311,335.654C252.222,335.654 252.121,335.642 252.037,335.642C251.966,335.642 251.9,335.594 251.9,335.546C251.894,335.54 251.894,335.528 251.894,335.528C251.894,335.439 251.954,335.278 252.067,335.105L253.814,332.398C254.363,333.298 255.013,334.384 255.704,335.499C255.728,335.54 255.728,335.57 255.728,335.582C255.734,335.6 255.722,335.6 255.722,335.6C255.591,335.63 255.472,335.725 255.472,335.856C255.513,336.083 255.704,336.071 256.008,336.089C257.034,336.113 258.03,336.113 258.334,336.113L258.704,336.113C258.847,336.113 259.026,336.077 259.043,335.886C259.037,335.743 258.912,335.654 258.787,335.654M210.512,333.626C210.345,333.62 210.262,333.787 210.256,333.954C210.22,334.151 210.053,334.491 209.851,334.711C209.385,335.23 208.819,335.32 207.71,335.32C206.088,335.314 203.93,333.996 203.924,331.187C203.924,330.019 204.144,328.892 205.039,328.129C205.581,327.663 206.243,327.467 207.328,327.467C208.461,327.467 209.278,327.765 209.672,328.146C209.964,328.439 210.113,328.85 210.125,329.202C210.125,329.351 210.155,329.548 210.351,329.56C210.572,329.542 210.614,329.333 210.626,329.16C210.638,328.916 210.638,328.248 210.667,327.86C210.697,327.431 210.721,327.3 210.721,327.18C210.733,327.061 210.614,326.942 210.447,326.942C210.089,326.9 209.678,326.811 209.201,326.739C208.634,326.668 208.157,326.614 207.37,326.614C205.498,326.614 204.269,327.109 203.339,327.914C202.123,329.011 201.843,330.454 201.843,331.301C201.843,332.481 202.182,333.883 203.447,334.938C204.603,335.916 206.076,336.274 207.793,336.274C208.616,336.274 209.564,336.202 210.089,335.993C210.31,335.916 210.429,335.797 210.477,335.576C210.614,335.141 210.751,334.109 210.751,333.942C210.751,333.817 210.697,333.644 210.512,333.626M200.507,333.626C200.334,333.62 200.262,333.787 200.245,333.954C200.215,334.151 200.048,334.491 199.845,334.711C199.38,335.23 198.819,335.32 197.71,335.32C196.082,335.314 193.924,333.996 193.918,331.187C193.918,330.019 194.145,328.892 195.033,328.129C195.582,327.663 196.243,327.467 197.323,327.467C198.456,327.467 199.273,327.765 199.666,328.146C199.958,328.439 200.101,328.85 200.119,329.202C200.119,329.351 200.149,329.548 200.346,329.56C200.566,329.542 200.602,329.333 200.62,329.16C200.632,328.916 200.632,328.248 200.662,327.86C200.692,327.431 200.716,327.3 200.722,327.18C200.727,327.061 200.602,326.942 200.441,326.942C200.084,326.9 199.672,326.811 199.201,326.739C198.629,326.668 198.152,326.614 197.364,326.614C195.486,326.614 194.264,327.109 193.34,327.914C192.117,329.011 191.843,330.454 191.843,331.301C191.837,332.481 192.171,333.883 193.441,334.938C194.604,335.916 196.077,336.274 197.794,336.274C198.605,336.274 199.565,336.202 200.089,335.993C200.31,335.916 200.429,335.797 200.471,335.576C200.602,335.141 200.745,334.109 200.745,333.942C200.745,333.817 200.692,333.644 200.507,333.626M190.501,333.626C190.334,333.62 190.257,333.787 190.245,333.954C190.209,334.151 190.042,334.491 189.839,334.711C189.374,335.23 188.808,335.32 187.705,335.32C186.077,335.314 183.918,333.996 183.912,331.187C183.912,330.019 184.139,328.892 185.028,328.129C185.57,327.663 186.238,327.467 187.317,327.467C188.45,327.467 189.267,327.765 189.661,328.146C189.953,328.439 190.102,328.85 190.114,329.202C190.114,329.351 190.138,329.548 190.346,329.56C190.561,329.542 190.603,329.333 190.615,329.16C190.627,328.916 190.627,328.248 190.656,327.86C190.686,327.431 190.716,327.3 190.716,327.18C190.728,327.061 190.603,326.942 190.436,326.942C190.078,326.9 189.667,326.811 189.195,326.739C188.623,326.668 188.146,326.614 187.359,326.614C185.487,326.614 184.258,327.109 183.334,327.914C182.112,329.011 181.837,330.454 181.837,331.301C181.837,332.481 182.171,333.883 183.429,334.938C184.592,335.916 186.071,336.274 187.788,336.274C188.605,336.274 189.553,336.202 190.084,335.993C190.305,335.916 190.418,335.797 190.472,335.576C190.603,335.141 190.74,334.109 190.74,333.942C190.74,333.817 190.686,333.644 190.501,333.626M178.677,331.67C178.677,332.905 178.421,333.948 177.652,334.592C176.918,335.194 176.113,335.385 174.992,335.385C174.02,335.391 173.555,335.123 173.436,334.95C173.37,334.878 173.323,334.437 173.317,334.151C173.299,333.912 173.281,332.988 173.281,331.712L173.281,330.192C173.281,329.244 173.281,328.248 173.299,327.842C173.311,327.711 173.299,327.735 173.388,327.687C173.442,327.652 173.883,327.61 174.122,327.616C175.094,327.616 176.423,327.735 177.544,328.737C178.081,329.196 178.677,330.162 178.677,331.67M179.458,328.188C178.057,326.775 175.922,326.787 174.36,326.787C173.609,326.787 172.708,326.811 172.333,326.811C171.981,326.811 171.182,326.787 170.526,326.787C170.353,326.787 170.162,326.799 170.138,326.996C170.15,327.169 170.317,327.228 170.454,327.228C170.633,327.228 170.848,327.24 170.926,327.264C171.307,327.395 171.349,327.431 171.391,327.83C171.409,328.206 171.409,328.546 171.409,330.382L171.409,332.505C171.409,333.614 171.409,334.568 171.349,335.069C171.301,335.421 171.248,335.582 171.057,335.618C170.955,335.642 170.824,335.654 170.639,335.654C170.46,335.654 170.341,335.773 170.341,335.886C170.347,336.065 170.526,336.113 170.687,336.113C170.943,336.113 171.253,336.101 171.552,336.089C171.85,336.089 172.124,336.077 172.261,336.077C172.565,336.077 173.018,336.101 173.513,336.143C174.014,336.172 174.557,336.214 175.016,336.214C177.341,336.214 178.689,335.355 179.273,334.765C180.001,334.056 180.669,332.875 180.669,331.331C180.669,329.87 180.102,328.832 179.458,328.188M169.268,335.654C169.125,335.654 168.94,335.642 168.588,335.546C168.272,335.457 168.165,335.2 168.051,334.437L166.919,326.984C166.865,326.697 166.716,326.525 166.531,326.513C166.352,326.519 166.221,326.656 166.114,326.87L162.852,333.501L159.59,326.954C159.429,326.626 159.298,326.513 159.119,326.513C158.94,326.519 158.809,326.686 158.779,326.906L157.545,334.795C157.491,335.194 157.354,335.624 157.116,335.63C156.925,335.654 156.847,335.654 156.746,335.654C156.597,335.654 156.46,335.725 156.448,335.874C156.448,336.077 156.651,336.113 156.776,336.113C157.181,336.113 157.778,336.077 158.01,336.077C158.231,336.077 158.803,336.113 159.328,336.113C159.507,336.113 159.721,336.095 159.727,335.874C159.71,335.713 159.572,335.66 159.429,335.654C159.328,335.654 159.221,335.642 159.012,335.6C158.803,335.558 158.708,335.51 158.708,335.349C158.708,335.153 158.726,335.004 158.75,334.795L159.316,330.347C159.733,331.199 160.359,332.487 160.443,332.69C160.592,333.048 161.582,334.878 161.88,335.439C162.089,335.803 162.202,336.077 162.47,336.101C162.703,336.089 162.774,335.916 163.055,335.361L165.631,330.198L166.286,335.159C166.298,335.266 166.304,335.355 166.304,335.415C166.31,335.564 166.286,335.558 166.292,335.57C166.203,335.6 166.096,335.648 166.09,335.791C166.102,335.964 166.263,336.023 166.555,336.035C167.056,336.065 168.827,336.113 169.143,336.113C169.328,336.107 169.542,336.101 169.572,335.874C169.56,335.701 169.399,335.654 169.268,335.654M328.54,268.024C328.826,267.755 328.957,267.744 329.41,267.934C330.531,268.417 331.724,269.031 332.04,269.192C332.344,269.347 332.541,269.508 332.469,269.669C332.392,269.854 332.195,269.795 332.034,269.723C331.765,269.61 331.3,269.508 330.907,269.461C329.202,269.258 328.128,270.224 327.58,271.494C326.781,273.331 327.639,274.768 328.724,275.239C329.726,275.674 330.8,275.775 332.869,274.648L334.008,274.028C336.744,272.538 338.509,272.377 340.167,273.098C342.421,274.07 343.22,276.652 341.992,279.49C341.419,280.826 340.841,281.595 340.465,282.066C340.346,282.233 340.239,282.311 340.096,282.245C339.833,282.132 339.273,281.792 337.681,281.1C337.227,280.909 337.09,280.772 337.162,280.611C337.221,280.468 337.371,280.456 337.621,280.569C337.806,280.647 338.48,280.82 339.201,280.623C339.72,280.48 340.59,280.152 341.169,278.822C341.819,277.308 341.342,276.002 340.113,275.477C339.171,275.066 338.247,275.227 336.226,276.372L335.552,276.753C332.618,278.435 330.823,278.703 328.88,277.856C327.693,277.344 326.477,276.282 326.155,274.398C325.94,273.086 326.25,271.864 326.721,270.773C327.234,269.592 327.77,268.733 328.54,268.024M341.676,260.159C344.937,261.083 345.54,261.25 346.237,261.399C346.977,261.566 347.4,261.453 347.644,261.012C347.776,260.797 347.877,260.523 347.948,260.266C348.008,260.052 348.086,259.932 348.259,259.98C348.39,260.022 348.384,260.201 348.282,260.546C348.056,261.357 347.609,262.693 347.43,263.319C347.281,263.85 346.988,265.132 346.756,265.949C346.678,266.229 346.589,266.39 346.458,266.354C346.291,266.301 346.279,266.163 346.339,265.949C346.404,265.734 346.428,265.555 346.458,265.287C346.517,264.679 346.195,264.404 345.456,264.148C344.788,263.909 344.186,263.742 340.924,262.818L337.15,261.751C335.069,261.161 333.369,260.684 332.427,260.511C331.831,260.409 331.402,260.451 331.133,261.065C331.002,261.357 330.829,261.817 330.74,262.138C330.668,262.377 330.573,262.466 330.472,262.437C330.317,262.395 330.299,262.204 330.37,261.966C330.77,260.552 331.217,259.217 331.378,258.632C331.521,258.143 331.837,256.778 332.082,255.913C332.159,255.633 332.26,255.508 332.415,255.55C332.523,255.579 332.565,255.681 332.493,255.943C332.398,256.259 332.368,256.533 332.356,256.736C332.32,257.189 332.648,257.422 333.25,257.66C334.121,258.024 335.82,258.501 337.901,259.086L341.676,260.159ZM334.997,241.227C335.206,240.899 335.325,240.845 335.808,240.917C337.025,241.096 338.336,241.37 338.688,241.448C339.016,241.513 339.249,241.615 339.225,241.788C339.195,241.99 338.992,241.978 338.819,241.954C338.527,241.919 338.056,241.937 337.663,241.99C335.957,242.241 335.176,243.457 334.979,244.829C334.693,246.814 335.898,247.977 337.072,248.15C338.152,248.305 339.213,248.12 340.912,246.492L341.855,245.592C344.102,243.433 345.766,242.819 347.555,243.075C349.982,243.427 351.431,245.705 350.995,248.776C350.787,250.207 350.435,251.107 350.196,251.656C350.125,251.853 350.041,251.948 349.886,251.924C349.6,251.883 348.974,251.704 347.251,251.459C346.768,251.388 346.601,251.298 346.625,251.125C346.649,250.964 346.786,250.917 347.054,250.958C347.251,250.982 347.948,250.97 348.592,250.595C349.058,250.32 349.815,249.778 350.018,248.341C350.256,246.707 349.445,245.58 348.121,245.389C347.108,245.24 346.261,245.639 344.609,247.273L344.055,247.828C341.664,250.201 340.006,250.934 337.907,250.63C336.625,250.451 335.176,249.748 334.365,248.007C333.817,246.802 333.793,245.538 333.966,244.369C334.151,243.087 334.449,242.121 334.997,241.227M337.991,220.655C336.255,220.763 335.689,221.073 335.546,221.526C335.427,221.908 335.421,222.331 335.433,222.689C335.439,222.933 335.403,223.07 335.266,223.07C335.087,223.076 335.033,222.88 335.027,222.569C334.973,221.121 335.009,220.226 334.991,219.803C334.985,219.6 334.884,218.557 334.842,217.4C334.83,217.108 334.848,216.905 335.045,216.899C335.182,216.893 335.236,217.03 335.242,217.251C335.248,217.543 335.284,217.942 335.385,218.246C335.588,218.825 336.232,218.89 338.175,218.843L351.377,218.58C351.824,218.563 352.134,218.616 352.14,218.837C352.152,219.087 351.872,219.296 351.484,219.689C351.204,219.964 347.686,223.482 344.574,226.851C343.113,228.419 340.006,231.543 339.666,231.931L339.666,232.044L349.666,231.472C351.025,231.4 351.443,231.18 351.645,230.637C351.771,230.297 351.747,229.767 351.741,229.457C351.729,229.188 351.794,229.093 351.926,229.093C352.105,229.081 352.134,229.325 352.146,229.659C352.188,230.816 352.158,231.889 352.176,232.36C352.182,232.605 352.283,233.452 352.319,234.543C352.331,234.835 352.319,235.056 352.134,235.062C352.003,235.067 351.932,234.936 351.92,234.668C351.914,234.447 351.908,234.268 351.836,234C351.628,233.386 351.156,233.225 349.904,233.243L335.838,233.493C335.349,233.511 335.14,233.434 335.134,233.231C335.123,232.986 335.361,232.712 335.6,232.462C336.888,231.007 339.708,228.049 341.92,225.652C344.24,223.136 346.935,220.566 347.346,220.149L347.346,220.077L337.991,220.655ZM342.099,201.622C345.408,200.877 346.017,200.74 346.702,200.543C347.43,200.334 347.74,200.078 347.734,199.327C347.734,199.142 347.674,198.766 347.609,198.462C347.549,198.223 347.567,198.086 347.716,198.051C347.871,198.015 347.948,198.158 348.02,198.486C348.151,199.076 348.276,199.708 348.396,200.251C348.503,200.823 348.592,201.33 348.658,201.634C348.819,202.332 349.791,206.661 349.904,207.066C350.041,207.472 350.161,207.812 350.244,207.973C350.292,208.08 350.387,208.193 350.411,208.307C350.435,208.414 350.351,208.456 350.244,208.479C350.095,208.515 349.809,208.462 348.789,208.623C348.569,208.646 347.603,208.819 347.328,208.837C347.215,208.837 347.078,208.825 347.042,208.67C347.006,208.521 347.108,208.45 347.299,208.408C347.454,208.378 347.817,208.271 348.056,208.104C348.414,207.859 348.628,207.585 348.515,206.464C348.473,206.088 348.002,203.793 347.907,203.357C347.883,203.25 347.805,203.22 347.656,203.256L342.147,204.49C341.992,204.526 341.914,204.568 341.944,204.693C342.051,205.176 342.612,207.674 342.767,208.169C342.928,208.682 343.065,208.992 343.327,209.141C343.536,209.255 343.667,209.314 343.691,209.422C343.709,209.511 343.679,209.589 343.548,209.618C343.423,209.642 343.053,209.636 341.926,209.797C341.479,209.875 340.596,210.006 340.441,210.042C340.268,210.077 340.03,210.137 339.988,209.934C339.952,209.785 340.03,209.72 340.137,209.696C340.352,209.63 340.638,209.565 340.906,209.433C341.312,209.225 341.574,208.849 341.479,208.026C341.431,207.603 340.966,205.438 340.847,204.92C340.823,204.812 340.734,204.806 340.602,204.836L338.885,205.224C338.146,205.391 336.136,205.82 335.51,205.981C334.019,206.363 333.769,206.78 334.27,209.004C334.395,209.571 334.604,210.483 334.985,210.99C335.379,211.497 335.892,211.658 336.822,211.61C337.066,211.598 337.168,211.622 337.204,211.771C337.239,211.95 337.066,211.986 336.846,212.039C336.345,212.147 334.83,212.308 334.365,212.296C333.769,212.272 333.727,212.075 333.536,211.246C333.173,209.618 332.946,208.408 332.755,207.466C332.588,206.524 332.463,205.844 332.314,205.188C332.26,204.949 332.153,204.472 332.016,203.954C331.903,203.453 331.736,202.898 331.634,202.463C331.569,202.183 331.599,202.016 331.754,201.98C331.861,201.95 331.95,202.028 332.01,202.29C332.082,202.612 332.183,202.868 332.272,203.053C332.451,203.465 332.958,203.471 333.608,203.417C334.544,203.316 336.267,202.928 338.265,202.481L342.099,201.622ZM327.425,184.915C328.361,182.166 330.442,180.675 332.445,179.846C333.847,179.268 336.452,178.695 339.082,179.924C341.056,180.842 342.695,182.458 343.959,185.529C344.49,186.805 344.723,187.604 344.991,188.6C345.212,189.428 345.301,190.162 345.492,190.806C345.563,191.038 345.498,191.164 345.373,191.217C345.206,191.283 344.937,191.325 344.198,191.581C343.5,191.825 342.379,192.314 341.95,192.44C341.628,192.547 341.443,192.577 341.372,192.392C341.306,192.225 341.449,192.118 341.741,191.998C342.367,191.712 342.981,191.146 343.303,190.406C343.745,189.428 343.637,187.592 342.85,185.696C342.105,183.907 341.169,182.923 339.97,182.351C337.967,181.42 335.85,181.838 333.852,182.667C328.945,184.694 328.057,189.428 329.202,192.189C329.959,194.02 330.627,195.051 331.915,195.481C332.451,195.671 333.161,195.695 333.56,195.618C333.918,195.546 334.013,195.552 334.085,195.719C334.145,195.862 334.019,195.964 333.852,196.029C333.608,196.131 331.712,196.625 330.925,196.715C330.531,196.751 330.394,196.715 330.108,196.423C329.434,195.731 328.641,194.228 328.098,192.911C326.93,190.09 326.566,187.461 327.425,184.915M329.076,170.723C331.998,169.006 332.529,168.684 333.125,168.284C333.757,167.867 333.972,167.479 333.817,166.996C333.751,166.752 333.62,166.496 333.489,166.263C333.369,166.072 333.346,165.929 333.495,165.84C333.614,165.774 333.739,165.905 333.924,166.215C334.353,166.943 335.003,168.189 335.337,168.744C335.617,169.226 336.345,170.324 336.774,171.051C336.923,171.302 336.971,171.48 336.858,171.546C336.709,171.641 336.595,171.546 336.482,171.355C336.369,171.158 336.261,171.015 336.089,170.813C335.689,170.347 335.266,170.383 334.574,170.747C333.936,171.069 333.399,171.385 330.478,173.108L327.097,175.1C325.236,176.197 323.716,177.091 322.935,177.658C322.452,178.022 322.183,178.356 322.446,178.982C322.571,179.274 322.78,179.715 322.953,180.007C323.072,180.216 323.072,180.347 322.976,180.401C322.839,180.484 322.69,180.359 322.571,180.15C321.826,178.886 321.164,177.64 320.86,177.121C320.597,176.68 319.828,175.499 319.375,174.73C319.226,174.486 319.208,174.313 319.339,174.235C319.44,174.182 319.542,174.223 319.673,174.45C319.846,174.742 320.019,174.951 320.162,175.1C320.466,175.44 320.86,175.356 321.45,175.094C322.314,174.712 323.829,173.818 325.695,172.721L329.076,170.723ZM317.538,157.587C317.348,157.742 317.306,157.832 317.353,157.999C317.52,158.458 317.89,159.024 318.236,159.453C318.802,160.151 319.053,160.324 319.53,160.449C320.329,160.67 321.533,160.527 322.958,159.382C325.421,157.396 324.819,155.19 323.996,154.165C323.65,153.729 323.376,153.431 323.185,153.3C323.054,153.205 322.958,153.228 322.815,153.336L317.538,157.587ZM317.258,154.433C319.9,152.31 320.383,151.917 320.913,151.434C321.474,150.927 321.641,150.563 321.301,149.889C321.223,149.728 321.003,149.412 320.812,149.174C320.657,148.983 320.603,148.852 320.728,148.75C320.848,148.655 320.985,148.75 321.188,149.007C321.933,149.925 322.762,151.064 323.06,151.428C323.531,152.018 324.646,153.294 325.075,153.837C325.958,154.934 326.793,156.18 326.906,157.635C326.965,158.386 326.638,159.793 325.475,160.73C324.193,161.767 322.577,162.178 319.739,161.57C319.041,164.683 318.457,167.128 318.206,169.018C317.98,170.801 318.433,171.612 318.594,171.91C318.707,172.13 318.82,172.303 318.928,172.44C319.041,172.584 319.047,172.691 318.957,172.762C318.82,172.87 318.689,172.78 318.516,172.572L317.192,170.92C316.405,169.948 316.143,169.441 316.024,168.797C315.821,167.73 316.107,166.412 316.662,164.361C317.061,162.9 317.592,161.147 317.675,160.712C317.711,160.545 317.64,160.425 317.544,160.3L316.364,158.762C316.292,158.678 316.221,158.654 316.107,158.732L315.869,158.935C314.253,160.229 312.881,161.338 312.22,162.012C311.76,162.465 311.462,162.882 311.814,163.455C311.987,163.747 312.261,164.158 312.428,164.367C312.542,164.504 312.542,164.617 312.458,164.683C312.333,164.784 312.184,164.701 311.999,164.474C311.194,163.466 310.21,162.143 310.001,161.88C309.733,161.552 308.803,160.497 308.242,159.805C308.057,159.579 308.016,159.418 308.135,159.316C308.224,159.245 308.332,159.275 308.499,159.483C308.707,159.74 308.91,159.925 309.071,160.056C309.417,160.342 309.876,160.121 310.431,159.787C311.23,159.287 312.607,158.183 314.199,156.895L317.258,154.433ZM300.354,138.512C302.56,135.942 302.965,135.465 303.401,134.893C303.86,134.291 303.955,133.903 303.502,133.307C303.395,133.158 303.12,132.889 302.882,132.693C302.697,132.532 302.625,132.406 302.727,132.293C302.828,132.174 302.977,132.239 303.228,132.46C304.128,133.229 305.154,134.195 305.66,134.63C306.06,134.976 307.169,135.847 307.783,136.366C308.034,136.586 308.129,136.717 308.022,136.837C307.92,136.956 307.789,136.902 307.622,136.759C307.437,136.598 307.318,136.527 307.086,136.384C306.555,136.079 306.173,136.252 305.637,136.813C305.136,137.326 304.73,137.803 302.518,140.373L300.485,142.74C298.38,145.196 297.986,146.651 298.231,148.035C298.463,149.317 299.179,150.05 299.751,150.545C300.497,151.183 301.618,151.732 302.876,151.636C304.605,151.505 305.959,150.02 307.455,148.279L309.274,146.168C311.48,143.593 311.886,143.121 312.321,142.555C312.78,141.947 312.875,141.559 312.416,140.963C312.309,140.814 312.041,140.551 311.856,140.385C311.665,140.229 311.593,140.104 311.695,139.991C311.796,139.872 311.945,139.937 312.178,140.14C313.042,140.879 314.068,141.845 314.086,141.863C314.289,142.036 315.398,142.901 316.06,143.467C316.292,143.67 316.382,143.807 316.28,143.926C316.179,144.046 316.048,143.992 315.845,143.813C315.66,143.658 315.547,143.587 315.314,143.443C314.784,143.139 314.396,143.306 313.859,143.873C313.358,144.386 312.953,144.857 310.747,147.433L309.19,149.239C307.58,151.118 305.678,152.954 303.21,152.954C301.123,152.954 299.745,152.095 298.648,151.153C297.748,150.384 296.168,148.935 295.893,146.759C295.697,145.244 296.126,143.437 298.231,140.981L300.354,138.512ZM290.3,125.829L287.391,124.219C286.252,123.605 285.733,123.432 285.196,123.689C284.832,123.862 284.6,124.035 284.475,124.166C284.344,124.297 284.242,124.339 284.123,124.273C283.992,124.196 284.01,124.076 284.135,123.862C284.314,123.558 285.709,122.019 285.834,121.888C286.043,121.673 286.162,121.59 286.281,121.661C286.436,121.751 286.514,122.055 286.973,122.377C287.498,122.759 288.207,123.224 288.839,123.599L296.46,128.071C297.074,128.429 297.533,128.626 297.843,128.757C298.165,128.864 298.344,128.918 298.422,128.96C298.553,129.043 298.505,129.169 298.338,129.455C298.1,129.86 297.265,131.154 296.967,131.655C296.836,131.84 296.728,131.929 296.615,131.864C296.466,131.768 296.478,131.649 296.633,131.351L296.74,131.13C296.991,130.606 296.788,129.765 295.1,128.721L292.709,127.237L288.076,135.125C287.039,136.896 286.144,138.417 285.757,139.305C285.5,139.872 285.363,140.367 285.9,140.784C286.144,140.975 286.544,141.267 286.83,141.434C287.045,141.559 287.104,141.672 287.051,141.768C286.973,141.905 286.782,141.869 286.574,141.744C285.304,141.005 284.123,140.229 283.586,139.919C283.145,139.657 281.899,139.001 281.13,138.554C280.879,138.405 280.778,138.268 280.855,138.131C280.909,138.035 281.022,138.023 281.255,138.16C281.541,138.333 281.797,138.429 281.994,138.488C282.424,138.637 282.787,138.286 283.169,137.761C283.741,137.01 284.63,135.489 285.673,133.718L290.3,125.829ZM173.835,142.03C173.454,142.078 173.334,142.018 173.084,141.595C172.464,140.54 171.856,139.341 171.695,139.025C171.54,138.721 171.474,138.476 171.629,138.387C171.802,138.286 171.921,138.447 172.011,138.602C172.16,138.846 172.476,139.21 172.762,139.478C174.026,140.647 175.469,140.492 176.656,139.788C178.385,138.763 178.534,137.099 177.932,136.079C177.371,135.137 176.56,134.428 174.229,134.124L172.941,133.957C169.852,133.557 168.326,132.645 167.407,131.095C166.155,128.984 167.026,126.42 169.691,124.84C170.937,124.1 171.856,123.814 172.434,123.659C172.631,123.593 172.762,123.593 172.84,123.725C172.989,123.975 173.239,124.577 174.128,126.074C174.378,126.497 174.408,126.682 174.253,126.777C174.122,126.855 173.996,126.772 173.859,126.545C173.758,126.372 173.311,125.835 172.613,125.573C172.106,125.382 171.212,125.132 169.966,125.871C168.54,126.712 168.171,128.048 168.85,129.198C169.375,130.081 170.216,130.492 172.518,130.761L173.299,130.844C176.65,131.214 178.26,132.049 179.339,133.867C180.001,134.982 180.365,136.556 179.518,138.274C178.922,139.454 177.95,140.265 176.936,140.868C175.821,141.529 174.879,141.905 173.835,142.03M162.256,142.173C162.339,142.102 162.315,142.042 162.256,142L157.253,138.948C157.181,138.888 157.092,138.816 157.038,138.858C156.985,138.9 157.02,139.013 157.062,139.097L158.875,144.666C158.916,144.749 158.976,144.791 159.048,144.731L162.256,142.173ZM159.394,145.882C159.304,145.954 159.298,146.019 159.346,146.151L160.395,149.388C160.568,149.967 160.813,150.456 160.98,150.664C161.23,150.98 161.564,151.076 162.107,150.646L162.369,150.438C162.578,150.271 162.661,150.265 162.745,150.372C162.852,150.509 162.78,150.629 162.584,150.778C162.029,151.225 161.236,151.767 160.699,152.203C160.503,152.358 159.584,153.175 158.678,153.896C158.457,154.075 158.32,154.123 158.207,153.986C158.123,153.884 158.171,153.789 158.308,153.682C158.463,153.556 158.696,153.342 158.821,153.216C159.543,152.471 159.399,151.612 159.054,150.462L154.695,136.026C154.504,135.352 154.45,135.078 154.623,134.941C154.784,134.815 155.011,134.887 155.506,135.149C156.692,135.775 165.154,140.659 168.379,142.424C170.293,143.461 170.997,143.306 171.432,143.098C171.736,142.943 172.011,142.752 172.219,142.579C172.357,142.472 172.458,142.418 172.553,142.543C172.667,142.68 172.535,142.841 171.892,143.354C171.265,143.855 169.995,144.869 168.57,145.948C168.242,146.18 168.034,146.347 167.938,146.228C167.855,146.121 167.896,146.031 168.057,145.876C168.153,145.745 168.147,145.489 167.896,145.346L163.55,142.764C163.448,142.704 163.365,142.71 163.281,142.782L159.394,145.882ZM142.459,148.619L140.241,151.094C139.388,152.066 139.102,152.531 139.227,153.115C139.317,153.503 139.436,153.765 139.537,153.926C139.633,154.081 139.657,154.188 139.561,154.284C139.454,154.397 139.341,154.355 139.168,154.188C138.905,153.944 137.719,152.239 137.623,152.084C137.456,151.839 137.409,151.696 137.498,151.601C137.617,151.469 137.933,151.463 138.351,151.088C138.84,150.664 139.46,150.074 139.961,149.537L146.025,143.121C146.52,142.603 146.806,142.203 147.003,141.929C147.182,141.637 147.277,141.476 147.337,141.416C147.438,141.303 147.551,141.374 147.796,141.607C148.142,141.929 149.209,143.032 149.632,143.432C149.782,143.598 149.847,143.724 149.752,143.819C149.632,143.95 149.519,143.909 149.263,143.694L149.066,143.545C148.619,143.175 147.748,143.181 146.353,144.594L144.373,146.592L151.022,152.871C152.512,154.278 153.794,155.488 154.57,156.067C155.065,156.448 155.512,156.687 156.036,156.257C156.287,156.067 156.657,155.739 156.883,155.494C157.056,155.315 157.175,155.28 157.259,155.357C157.372,155.47 157.301,155.643 157.128,155.816C156.12,156.89 155.106,157.861 154.677,158.321C154.325,158.69 153.407,159.758 152.799,160.408C152.602,160.616 152.441,160.688 152.328,160.574C152.244,160.503 152.256,160.39 152.441,160.199C152.673,159.954 152.823,159.728 152.93,159.555C153.168,159.167 152.906,158.732 152.483,158.237C151.874,157.516 150.598,156.305 149.108,154.898L142.459,148.619ZM136.968,163.639C134.225,161.636 133.724,161.272 133.122,160.885C132.484,160.473 132.042,160.431 131.661,160.759C131.464,160.92 131.273,161.141 131.118,161.356C130.987,161.54 130.874,161.618 130.724,161.517C130.617,161.439 130.689,161.266 130.897,160.974C131.398,160.294 132.281,159.197 132.662,158.672C132.99,158.225 133.712,157.122 134.213,156.436C134.38,156.204 134.523,156.085 134.63,156.162C134.773,156.269 134.731,156.401 134.6,156.585C134.469,156.764 134.38,156.919 134.26,157.164C133.998,157.712 134.195,158.082 134.803,158.577C135.352,159.036 135.858,159.406 138.595,161.403L141.768,163.717C143.515,164.993 144.934,166.03 145.769,166.525C146.287,166.823 146.705,166.931 147.17,166.448C147.396,166.221 147.718,165.852 147.915,165.577C148.058,165.38 148.178,165.333 148.273,165.398C148.398,165.488 148.344,165.673 148.201,165.869C147.337,167.056 146.448,168.153 146.097,168.642C145.792,169.054 145.023,170.234 144.493,170.95C144.32,171.188 144.177,171.272 144.051,171.182C143.962,171.117 143.956,171.003 144.117,170.789C144.314,170.514 144.433,170.276 144.516,170.085C144.707,169.674 144.481,169.34 143.998,168.904C143.306,168.266 141.887,167.223 140.134,165.947L136.968,163.639ZM137.474,182.058C137.164,182.291 137.033,182.297 136.604,182.052C135.536,181.444 134.421,180.705 134.123,180.514C133.843,180.329 133.658,180.15 133.748,179.995C133.849,179.822 134.034,179.9 134.189,179.989C134.439,180.132 134.892,180.287 135.274,180.371C136.956,180.764 138.13,179.918 138.81,178.713C139.8,176.966 139.102,175.44 138.077,174.855C137.123,174.319 136.067,174.104 133.891,174.998L132.686,175.493C129.806,176.68 128.035,176.644 126.461,175.756C124.326,174.539 123.808,171.886 125.34,169.191C126.056,167.927 126.712,167.223 127.135,166.8C127.272,166.651 127.385,166.585 127.522,166.657C127.773,166.8 128.292,167.199 129.8,168.058C130.23,168.302 130.355,168.445 130.265,168.6C130.188,168.738 130.039,168.732 129.806,168.6C129.633,168.499 128.977,168.255 128.238,168.374C127.707,168.457 126.801,168.69 126.085,169.948C125.275,171.385 125.608,172.733 126.777,173.389C127.666,173.895 128.602,173.842 130.736,172.923L131.452,172.613C134.547,171.266 136.359,171.194 138.208,172.238C139.329,172.876 140.426,174.062 140.545,175.976C140.611,177.3 140.17,178.487 139.585,179.512C138.947,180.639 138.315,181.432 137.474,182.058M124.344,191.336C124.571,191.426 124.672,191.414 124.792,191.289C125.108,190.913 125.412,190.311 125.608,189.792C125.93,188.957 125.954,188.653 125.829,188.176C125.614,187.377 124.887,186.405 123.182,185.743C120.23,184.599 118.62,186.226 118.143,187.455C117.946,187.973 117.821,188.355 117.803,188.588C117.785,188.755 117.851,188.826 118.018,188.892L124.344,191.336ZM121.751,193.155C118.59,191.933 118.006,191.706 117.326,191.492C116.599,191.259 116.205,191.295 115.794,191.927C115.686,192.076 115.531,192.422 115.418,192.714C115.329,192.94 115.239,193.054 115.096,192.994C114.947,192.94 114.965,192.773 115.084,192.463C115.507,191.36 116.08,190.078 116.247,189.637C116.521,188.933 117.07,187.324 117.32,186.68C117.827,185.374 118.489,184.026 119.693,183.197C120.313,182.768 121.697,182.345 123.092,182.887C124.631,183.483 125.799,184.67 126.688,187.437C129.735,186.483 132.144,185.767 133.903,185.04C135.56,184.336 136.037,183.543 136.222,183.251C136.347,183.042 136.449,182.857 136.508,182.69C136.574,182.529 136.669,182.47 136.771,182.512C136.938,182.571 136.926,182.732 136.83,182.983L136.061,184.962C135.614,186.125 135.31,186.608 134.809,187.031C133.986,187.747 132.698,188.152 130.647,188.701C129.18,189.089 127.397,189.506 126.98,189.649C126.813,189.709 126.747,189.822 126.688,189.971L125.948,191.766C125.907,191.867 125.924,191.945 126.05,191.998L126.342,192.106C128.28,192.857 129.92,193.489 130.832,193.728C131.464,193.894 131.971,193.948 132.293,193.358C132.454,193.06 132.674,192.618 132.77,192.368C132.835,192.201 132.931,192.141 133.032,192.183C133.175,192.243 133.181,192.41 133.08,192.678C132.615,193.883 131.959,195.403 131.834,195.713C131.684,196.107 131.237,197.442 130.915,198.277C130.808,198.545 130.695,198.671 130.546,198.611C130.444,198.569 130.414,198.462 130.51,198.212C130.629,197.901 130.683,197.633 130.719,197.436C130.79,196.983 130.379,196.703 129.8,196.387C128.971,195.946 127.326,195.308 125.412,194.568L121.751,193.155ZM117.618,209.207C114.303,208.497 113.695,208.366 112.985,208.259C112.234,208.146 111.846,208.241 111.542,208.927C111.459,209.094 111.357,209.457 111.292,209.761C111.238,210.006 111.167,210.125 111.018,210.095C110.862,210.06 110.857,209.899 110.922,209.571C111.047,208.98 111.208,208.354 111.328,207.812C111.471,207.245 111.596,206.75 111.661,206.446C111.811,205.749 112.747,201.408 112.812,200.984C112.86,200.567 112.89,200.203 112.884,200.024C112.884,199.911 112.848,199.762 112.872,199.655C112.896,199.547 112.985,199.541 113.099,199.565C113.248,199.595 113.486,199.762 114.476,200.042C114.691,200.114 115.639,200.364 115.889,200.46C115.996,200.507 116.116,200.579 116.086,200.734C116.05,200.883 115.937,200.907 115.734,200.865C115.585,200.829 115.209,200.77 114.923,200.823C114.5,200.895 114.19,201.056 113.826,202.117C113.701,202.481 113.164,204.759 113.075,205.194C113.051,205.307 113.104,205.361 113.26,205.397L118.775,206.583C118.93,206.613 119.02,206.613 119.049,206.482C119.151,205.999 119.693,203.495 119.753,202.982C119.825,202.445 119.83,202.105 119.652,201.867C119.508,201.676 119.419,201.563 119.443,201.455C119.461,201.366 119.52,201.312 119.652,201.336C119.783,201.366 120.111,201.533 121.202,201.855C121.637,201.968 122.496,202.225 122.651,202.254C122.818,202.296 123.062,202.344 123.021,202.541C122.985,202.696 122.889,202.719 122.782,202.696C122.561,202.672 122.275,202.612 121.977,202.618C121.518,202.63 121.124,202.863 120.862,203.656C120.731,204.055 120.248,206.214 120.135,206.738C120.111,206.846 120.194,206.887 120.325,206.911L122.049,207.281C122.788,207.442 124.792,207.895 125.424,208.008C126.938,208.289 127.344,208.014 127.821,205.79C127.946,205.218 128.143,204.306 127.999,203.679C127.862,203.059 127.457,202.696 126.598,202.35C126.366,202.26 126.288,202.195 126.318,202.046C126.36,201.867 126.533,201.908 126.753,201.95C127.254,202.064 128.697,202.552 129.115,202.755C129.645,203.029 129.603,203.226 129.425,204.055C129.073,205.689 128.775,206.881 128.548,207.812C128.304,208.742 128.137,209.416 127.999,210.072C127.946,210.31 127.844,210.787 127.755,211.318C127.642,211.819 127.564,212.391 127.469,212.832C127.409,213.118 127.314,213.25 127.159,213.22C127.051,213.196 127.004,213.095 127.057,212.832C127.129,212.504 127.147,212.236 127.141,212.027C127.147,211.574 126.694,211.365 126.079,211.139C125.185,210.835 123.462,210.465 121.452,210.03L117.618,209.207ZM111.31,228.944C110.057,229.379 109.783,229.743 109.515,230.524C109.402,230.858 109.378,231.21 109.372,231.388C109.354,231.591 109.282,231.651 109.151,231.645C108.972,231.633 108.966,231.388 108.99,231.055C109.062,229.874 109.211,228.61 109.258,227.829C109.294,227.274 109.294,226.201 109.372,225.086C109.39,224.817 109.443,224.579 109.604,224.585C109.759,224.597 109.795,224.734 109.777,224.937C109.759,225.289 109.759,225.628 109.885,225.813C109.98,225.974 110.135,226.052 110.332,226.064C110.624,226.082 111.262,225.921 112.079,225.664L122.43,222.48L122.436,222.391C120.051,221.282 113.069,217.924 111.632,217.298C111.351,217.167 111.023,217.06 110.821,217.048C110.642,217.036 110.457,217.108 110.379,217.31C110.272,217.573 110.23,217.901 110.213,218.193C110.201,218.39 110.165,218.568 110.01,218.557C109.831,218.551 109.801,218.342 109.825,217.924C109.897,216.809 110.022,215.879 110.04,215.593C110.069,215.211 110.069,214.162 110.111,213.488C110.129,213.202 110.183,213.029 110.344,213.035C110.499,213.047 110.529,213.184 110.517,213.405C110.505,213.625 110.475,214.096 110.713,214.514C110.892,214.818 111.256,215.176 112.639,215.861C114.679,216.863 115.841,217.543 118.501,218.92C121.661,220.554 124.022,221.759 125.102,222.313C126.354,222.975 126.7,223.136 126.682,223.446C126.664,223.732 126.342,223.846 125.275,224.203L111.31,228.944ZM116.086,238.955C112.699,239.17 112.079,239.206 111.369,239.295C110.618,239.39 110.248,239.635 110.171,240.13C110.117,240.38 110.117,240.672 110.135,240.941C110.147,241.161 110.111,241.293 109.932,241.305C109.795,241.316 109.741,241.144 109.718,240.786C109.664,239.945 109.646,238.532 109.604,237.888C109.569,237.333 109.419,236.022 109.366,235.175C109.348,234.889 109.384,234.704 109.515,234.698C109.694,234.686 109.747,234.817 109.759,235.038C109.771,235.258 109.807,235.437 109.867,235.705C110.016,236.296 110.403,236.457 111.19,236.445C111.9,236.445 112.526,236.409 115.907,236.194L119.83,235.944C121.989,235.807 123.742,235.7 124.696,235.545C125.292,235.443 125.68,235.258 125.728,234.59C125.757,234.274 125.769,233.78 125.746,233.452C125.734,233.201 125.787,233.088 125.907,233.082C126.056,233.07 126.139,233.243 126.151,233.487C126.246,234.96 126.27,236.361 126.306,236.97C126.336,237.476 126.491,238.878 126.551,239.766C126.568,240.052 126.515,240.213 126.354,240.219C126.246,240.231 126.169,240.148 126.157,239.879C126.133,239.546 126.068,239.283 126.014,239.086C125.901,238.645 125.513,238.532 124.863,238.508C123.921,238.46 122.162,238.568 120.003,238.705L116.086,238.955ZM126.843,258.889C128.53,258.477 129.037,258.072 129.097,257.595C129.144,257.201 129.073,256.784 129.001,256.432C128.948,256.194 128.96,256.056 129.091,256.027C129.264,255.991 129.353,256.176 129.419,256.48C129.729,257.893 129.854,258.781 129.943,259.193C129.991,259.39 130.277,260.397 130.528,261.536C130.587,261.811 130.611,262.019 130.414,262.061C130.283,262.085 130.212,261.966 130.164,261.751C130.104,261.465 129.997,261.083 129.842,260.797C129.538,260.266 128.894,260.32 126.992,260.707L114.059,263.343C113.623,263.438 113.301,263.438 113.254,263.224C113.2,262.985 113.438,262.729 113.748,262.27C113.975,261.948 116.801,257.851 119.258,253.981C120.415,252.175 122.907,248.549 123.176,248.102L123.152,247.995L113.421,250.362C112.097,250.666 111.727,250.958 111.626,251.531C111.566,251.883 111.679,252.401 111.745,252.711C111.805,252.974 111.757,253.075 111.626,253.105C111.453,253.141 111.381,252.902 111.304,252.58C111.059,251.447 110.892,250.392 110.791,249.933C110.737,249.688 110.493,248.883 110.26,247.81C110.195,247.524 110.171,247.303 110.344,247.267C110.475,247.238 110.57,247.357 110.63,247.619C110.672,247.834 110.713,248.007 110.839,248.251C111.143,248.83 111.638,248.895 112.866,248.651L126.658,245.878C127.135,245.771 127.35,245.818 127.397,246.009C127.445,246.254 127.266,246.57 127.075,246.862C126.074,248.514 123.832,251.93 122.084,254.685C120.254,257.583 118.066,260.588 117.732,261.071L117.749,261.137L126.843,258.889ZM127.695,281.679C124.577,283.008 124.004,283.259 123.366,283.581C122.687,283.921 122.43,284.225 122.573,284.958C122.603,285.143 122.734,285.501 122.86,285.787C122.955,286.013 122.967,286.157 122.818,286.21C122.681,286.276 122.573,286.157 122.442,285.841C121.977,284.755 121.488,283.443 121.22,282.823C121.011,282.334 120.397,281.064 120.081,280.331C119.95,280.021 119.932,279.86 120.075,279.8C120.212,279.735 120.313,279.842 120.397,280.051C120.492,280.271 120.57,280.391 120.713,280.617C121.053,281.13 121.47,281.142 122.204,280.874C122.877,280.635 123.456,280.391 126.568,279.055L129.437,277.827C132.412,276.545 133.408,275.418 133.795,274.064C134.159,272.812 133.837,271.84 133.533,271.142C133.151,270.242 132.388,269.258 131.219,268.787C129.609,268.143 127.737,268.87 125.626,269.777L123.062,270.874C119.95,272.216 119.371,272.46 118.733,272.776C118.06,273.122 117.803,273.426 117.946,274.159C117.976,274.344 118.101,274.702 118.203,274.929C118.298,275.149 118.31,275.292 118.167,275.352C118.024,275.418 117.922,275.286 117.797,274.994C117.35,273.951 116.855,272.633 116.849,272.615C116.742,272.365 116.128,271.101 115.788,270.307C115.663,270.021 115.639,269.86 115.788,269.801C115.931,269.741 116.02,269.842 116.128,270.087C116.223,270.313 116.301,270.433 116.444,270.659C116.784,271.166 117.201,271.184 117.94,270.916C118.608,270.677 119.187,270.427 122.299,269.091L124.493,268.155C126.771,267.177 129.281,266.366 131.5,267.457C133.372,268.376 134.231,269.759 134.797,271.083C135.262,272.174 136.043,274.165 135.334,276.24C134.839,277.695 133.658,279.12 130.683,280.397L127.695,281.679Z" style="fill-rule:nonzero;"/>
    </g>
</svg>
