<?xml version="1.0" standalone="no"?>
<!DOCTYPE svg PUBLIC "-//W3C//DTD SVG 20010904//EN"
        "http://www.w3.org/TR/2001/REC-SVG-20010904/DTD/svg10.dtd">
<svg version="1.0" xmlns="http://www.w3.org/2000/svg" fill="black"
     width="140.000000pt" height="150.000000pt" viewBox="0 0 140.000000 150.000000"
     preserveAspectRatio="xMidYMid meet">

    <g style="mix-blend-mode:darken" transform="translate(0.000000,150.000000) scale(0.100000,-0.100000)"
       fill="black">
        <path d="M565 1394 c-196 -42 -366 -176 -455 -359 -66 -137 -84 -269 -54 -413
41 -202 174 -373 359 -461 100 -48 157 -62 265 -66 317 -11 601 213 664 527
30 144 12 276 -54 413 -68 140 -166 237 -305 305 -136 66 -277 84 -420 54z
m325 -32 c114 -40 183 -83 260 -161 253 -255 253 -649 1 -902 -390 -389 -1056
-137 -1088 412 -18 307 178 578 479 659 94 26 264 22 348 -8z"/>
        <path d="M612 1359 c-217 -32 -410 -188 -487 -392 -150 -400 147 -829 575
-829 172 0 310 59 435 186 122 124 177 256 177 426 0 373 -334 663 -700 609z
m273 -35 c150 -48 283 -163 352 -304 51 -105 64 -159 64 -263 0 -95 -14 -171
-47 -244 l-23 -53 -531 0 -531 0 -23 53 c-46 103 -60 245 -36 366 39 196 209
382 406 446 108 35 260 34 369 -1z m77 -881 c-144 -2 -380 -2 -525 0 -144 1
-26 2 263 2 289 0 407 -1 262 -2z m238 -32 c0 -16 -28 -33 -35 -21 -13 20 -55
11 -67 -16 l-12 -25 -14 26 c-17 34 -61 31 -79 -5 l-12 -24 -10 27 c-8 21 -17
27 -41 27 -23 0 -31 -5 -36 -25 -8 -31 -16 -32 -29 -2 -15 33 -62 35 -76 3
l-12 -26 -23 25 c-33 36 -75 33 -116 -7 -20 -19 -28 -33 -20 -36 17 -5 16
-102 0 -103 -10 0 -10 -2 0 -6 6 -2 12 -20 12 -40 0 -34 -1 -34 -32 -28 -114
23 -225 78 -307 151 -52 47 -63 70 -36 80 20 8 45 -13 45 -37 0 -32 38 -24 42
9 2 21 8 27 28 27 20 0 26 -6 28 -27 2 -20 9 -28 22 -28 13 0 20 8 22 28 2 21
8 27 28 27 20 0 26 -6 28 -27 4 -35 39 -39 44 -7 5 36 33 47 59 24 l22 -20
-12 23 c-16 30 -62 27 -76 -5 -12 -29 -18 -29 -30 0 -6 13 -21 23 -37 25 -23
3 -30 -2 -39 -24 l-10 -28 -12 24 c-17 33 -67 35 -83 3 l-11 -23 -11 25 c-12
26 -55 35 -67 15 -7 -12 -35 5 -35 21 0 5 220 9 500 9 280 0 500 -4 500 -9z
m-482 -39 c2 -7 -6 -12 -17 -12 -21 0 -27 11 -14 24 9 9 26 2 31 -12z m140
-14 c4 -33 42 -41 42 -9 0 24 25 45 45 37 8 -3 15 -17 15 -31 0 -20 5 -25 25
-25 20 0 25 5 25 25 0 14 7 28 15 31 20 8 45 -13 45 -37 0 -32 38 -24 42 8 3
30 32 43 52 23 8 -9 -3 -25 -49 -67 -88 -81 -194 -134 -312 -158 -32 -6 -33
-6 -33 29 0 35 1 36 43 38 l42 1 -42 4 -43 4 0 50 c0 37 4 49 15 49 9 0 15 9
15 23 0 30 9 39 35 35 13 -2 21 -12 23 -30z m-130 -26 c2 -6 -6 -16 -19 -20
-15 -6 -19 -11 -10 -16 6 -4 18 -3 25 3 7 6 16 8 19 4 17 -16 3 -23 -43 -23
-48 0 -67 14 -35 26 8 4 12 10 9 15 -9 15 7 30 29 27 11 -2 22 -9 25 -16z m-3
-72 c-3 -5 -15 -10 -25 -10 -10 0 -22 5 -25 10 -4 6 7 10 25 10 18 0 29 -4 25
-10z m-55 -19 c7 -14 6 -21 -3 -25 -6 -3 2 -4 18 -1 17 3 36 15 44 25 14 21
31 27 31 11 0 -5 -7 -17 -16 -25 -12 -13 -13 -16 -1 -16 9 0 12 -9 9 -30 -4
-29 -6 -30 -53 -30 -44 0 -49 2 -50 23 -1 12 -2 37 -4 55 -3 36 9 42 25 13z"/>
        <path d="M957 1240 c9 -10 9 -19 -3 -42 -9 -17 -13 -32 -10 -35 2 -3 12 9 20
26 12 22 21 29 34 24 21 -8 15 -2 -23 21 -16 10 -25 13 -18 6z"/>
        <path d="M417 1233 c-15 -14 -6 -34 19 -43 16 -6 23 -15 18 -22 -5 -9 -3 -9 7
0 12 11 11 15 -5 27 -10 8 -24 16 -30 19 -7 3 -6 8 4 15 8 6 10 11 4 11 -6 0
-14 -3 -17 -7z"/>
        <path d="M1016 1168 c-19 -27 -20 -44 -4 -54 7 -5 8 -3 3 5 -4 8 2 25 14 42
12 16 17 29 12 29 -5 0 -17 -10 -25 -22z"/>
        <path d="M357 1159 c3 -11 9 -16 12 -10 4 6 12 7 21 1 8 -6 22 -10 30 -10 8 0
0 9 -18 20 -41 25 -51 25 -45 -1z"/>
        <path d="M1051 1126 l-24 -31 28 27 c16 15 27 29 24 31 -2 3 -15 -10 -28 -27z"/>
        <path d="M294 1128 c-10 -12 -13 -18 -6 -14 8 5 23 -1 38 -15 13 -12 26 -20
29 -17 3 3 -6 13 -20 22 -16 10 -24 23 -21 32 8 20 2 18 -20 -8z"/>
        <path d="M371 1114 c0 -11 3 -14 6 -6 3 7 2 16 -1 19 -3 4 -6 -2 -5 -13z"/>
        <path d="M1085 1088 c-25 -25 -27 -29 -9 -24 19 6 21 3 17 -21 -3 -25 -2 -25
6 -7 5 12 16 24 25 27 19 8 21 31 4 45 -9 7 -22 1 -43 -20z m45 3 c0 -12 -20
-25 -27 -18 -7 7 6 27 18 27 5 0 9 -4 9 -9z"/>
        <path d="M523 1014 c42 -44 77 -82 77 -86 0 -18 -41 -14 -55 6 -9 11 -13 16
-10 9 3 -7 -1 -26 -10 -42 -8 -17 -15 -39 -15 -49 0 -11 -16 -43 -35 -71 -39
-56 -44 -95 -19 -143 14 -26 19 -29 47 -24 37 7 67 33 67 56 0 9 -14 29 -31
46 -21 20 -29 35 -25 49 29 111 32 118 67 129 56 18 50 43 -28 111 -108 93
-113 95 -30 9z m-43 -319 c0 -8 -2 -15 -4 -15 -2 0 -6 7 -10 15 -3 8 -1 15 4
15 6 0 10 -7 10 -15z"/>
        <path d="M274 1054 c15 -14 31 -23 34 -20 6 7 -39 45 -53 45 -5 0 3 -11 19
-25z"/>
        <path d="M645 1052 c17 -10 48 -40 69 -67 22 -26 54 -54 72 -61 45 -19 84 -18
84 1 0 8 5 15 10 15 6 0 10 9 10 21 0 16 4 19 17 15 16 -6 16 -6 0 12 -9 10
-17 27 -18 38 0 14 -2 15 -6 4 -3 -8 -11 -18 -17 -22 -8 -5 -7 -8 2 -8 6 0 12
-7 12 -17 0 -14 -2 -14 -20 2 -14 13 -41 20 -83 23 -40 3 -69 10 -82 22 -22
19 -59 40 -72 40 -4 0 6 -8 22 -18z"/>
        <path d="M595 1023 c9 -38 31 -70 57 -84 19 -10 20 -9 13 7 -4 11 -11 32 -16
47 -10 37 -27 57 -46 57 -11 0 -13 -7 -8 -27z"/>
        <path d="M1142 1019 c-18 -12 -31 -24 -28 -26 6 -7 66 29 66 39 0 11 0 11 -38
-13z"/>
        <path d="M216 1009 c7 -12 75 -16 71 -5 -2 6 -20 11 -39 11 -20 0 -34 -3 -32
-6z"/>
        <path d="M1152 968 c-14 -14 -16 -44 -3 -52 5 -4 7 2 4 12 -5 20 11 37 42 45
16 4 15 5 -5 6 -15 0 -31 -4 -38 -11z"/>
        <path d="M186 961 c-9 -14 65 -24 78 -11 8 9 4 10 -15 5 -16 -4 -30 -2 -33 4
-9 13 -23 14 -30 2z"/>
        <path d="M895 929 c-4 -11 -5 -21 -3 -22 1 -1 13 -8 26 -15 26 -14 27 -11 7
28 -18 36 -22 36 -30 9z"/>
        <path d="M183 933 c9 -14 67 -35 67 -24 0 5 -8 11 -17 14 -10 2 -27 8 -37 13
-13 5 -17 4 -13 -3z"/>
        <path d="M760 897 c0 -28 38 -62 111 -97 43 -20 78 -44 85 -57 14 -30 24 -19
24 29 0 58 -39 95 -120 112 -36 8 -73 17 -82 21 -13 5 -18 2 -18 -8z"/>
        <path d="M1201 879 c-18 -6 -31 -13 -28 -16 8 -8 67 7 67 18 0 5 -1 9 -2 8 -2
0 -18 -5 -37 -10z"/>
        <path d="M191 873 c0 -7 -11 -13 -23 -14 -22 -1 -22 -1 2 -9 41 -13 57 -11 65
8 5 14 4 15 -6 5 -18 -18 -27 -16 -32 5 -3 9 -5 11 -6 5z"/>
        <path d="M617 874 c-4 -4 -7 -14 -7 -21 0 -24 54 -12 57 12 2 11 0 14 -3 8 -7
-16 -31 -17 -36 -2 -2 5 -7 7 -11 3z"/>
        <path d="M150 815 c0 -2 12 -11 27 -18 l27 -15 -32 -7 c-18 -3 -32 -10 -32
-15 0 -9 58 7 73 19 4 4 -9 15 -28 24 -19 9 -35 15 -35 12z"/>
        <path d="M805 770 c-8 -30 -17 -37 -55 -49 -25 -8 -54 -18 -65 -23 -17 -7 -16
-8 5 -3 14 2 37 5 52 5 41 0 81 39 76 75 l-3 29 -10 -34z"/>
        <path d="M1199 791 c21 -6 22 -8 7 -20 -23 -20 -20 -41 7 -40 18 1 19 2 4 6
-17 4 -16 8 9 34 l28 29 -40 -1 c-31 -1 -34 -2 -15 -8z"/>
        <path d="M830 772 c0 -10 16 -44 35 -76 23 -38 35 -71 35 -94 l0 -37 26 26
c15 16 28 42 31 65 4 33 1 45 -22 72 -26 32 -73 62 -95 62 -5 0 -10 -8 -10
-18z"/>
        <path d="M1240 740 c0 -5 5 -10 10 -10 6 0 10 5 10 10 0 6 -4 10 -10 10 -5 0
-10 -4 -10 -10z"/>
        <path d="M170 720 l-35 -7 43 -2 c23 0 42 4 42 9 0 6 -3 9 -7 9 -5 -1 -24 -5
-43 -9z"/>
        <path d="M1174 689 c-11 -18 12 -32 37 -23 13 4 27 7 32 6 4 -1 7 3 7 9 0 11
-16 9 -54 -7 -16 -6 -18 -4 -13 9 7 19 2 23 -9 6z"/>
        <path d="M200 669 c0 -6 -9 -24 -21 -40 l-20 -29 21 0 c12 0 18 4 15 10 -3 5
1 20 9 32 18 26 20 38 6 38 -5 0 -10 -5 -10 -11z"/>
        <path d="M150 661 c0 -5 9 -7 20 -4 11 3 20 7 20 9 0 2 -9 4 -20 4 -11 0 -20
-4 -20 -9z"/>
        <path d="M626 655 c-21 -7 -46 -21 -55 -29 -14 -15 -13 -16 5 -16 11 0 36 -14
57 -31 26 -21 43 -28 57 -24 20 6 28 39 11 49 -5 4 -7 -3 -4 -15 5 -17 2 -20
-18 -17 -33 4 -33 42 -1 46 29 4 48 -11 72 -59 20 -39 43 -51 75 -38 16 6 14
8 -12 8 -33 1 -35 4 -48 67 -12 60 -70 84 -139 59z"/>
        <path d="M1160 620 c0 -10 69 -29 74 -21 3 4 -13 12 -35 18 -21 5 -39 7 -39 3z"/>
        <path d="M218 613 c7 -3 16 -2 19 1 4 3 -2 6 -13 5 -11 0 -14 -3 -6 -6z"/>
        <path d="M194 564 c-18 -14 -18 -15 5 -4 12 7 32 10 42 7 10 -3 17 -1 13 4 -8
14 -38 11 -60 -7z"/>
        <path d="M1175 550 c-11 -4 -24 -5 -30 -2 -5 3 -5 -1 2 -8 8 -9 19 -10 39 -3
15 5 24 12 19 15 -6 3 -19 2 -30 -2z"/>
        <path d="M228 532 c-38 -23 -36 -36 2 -17 17 9 30 20 30 25 0 12 2 12 -32 -8z"/>
        <path d="M431 283 c1 -23 2 -24 6 -5 5 26 19 29 27 5 4 -14 4 -14 3 2 -1 11
-10 21 -20 23 -13 3 -17 -3 -16 -25z"/>
        <path d="M521 288 c5 -10 11 -18 12 -18 2 0 3 8 3 18 0 10 -6 19 -13 19 -8 0
-9 -6 -2 -19z"/>
        <path d="M368 289 c-4 -11 1 -15 18 -15 14 0 24 6 24 14 0 11 -3 12 -14 3 -11
-9 -15 -9 -18 1 -3 8 -6 8 -10 -3z"/>
        <path d="M480 286 c0 -8 4 -17 9 -20 5 -4 7 3 4 14 -6 23 -13 26 -13 6z"/>
        <path d="M571 284 c0 -11 3 -14 6 -6 3 7 2 16 -1 19 -3 4 -6 -2 -5 -13z"/>
        <path d="M576 231 c-4 -5 -2 -12 3 -15 5 -4 12 -2 15 3 4 5 2 12 -3 15 -5 4
-12 2 -15 -3z"/>
        <path d="M800 290 c13 -24 17 -25 17 -5 0 8 -6 16 -14 19 -11 4 -11 1 -3 -14z"/>
        <path d="M844 290 c0 -9 5 -17 11 -17 6 0 11 8 11 17 0 9 -5 17 -11 17 -6 0
-11 -8 -11 -17z"/>
        <path d="M893 289 c1 -10 4 -16 8 -13 4 2 9 -2 12 -8 2 -7 4 -1 3 13 0 14 -6
26 -13 26 -6 0 -11 -8 -10 -18z"/>
        <path d="M942 290 c0 -14 2 -19 5 -12 2 6 2 18 0 25 -3 6 -5 1 -5 -13z"/>
        <path d="M982 290 c0 -14 2 -19 5 -12 2 6 2 18 0 25 -3 6 -5 1 -5 -13z"/>
        <path d="M1012 285 c0 -16 2 -22 5 -12 2 9 2 23 0 30 -3 6 -5 -1 -5 -18z"/>
    </g>
</svg>
